<?xml version="1.0"?>
<svg width="1295" height="937" xmlns="http://www.w3.org/2000/svg" xmlns:svg="http://www.w3.org/2000/svg" data-name="Capa 1">
 <defs>
  <style>.cls-1 {
        fill: #fff;
      }</style>
 </defs>
 <g class="layer">
  <title>Layer 1</title>
  <g id="svg_1" transform="translate(-239.68 -417.83)">
   <path class="cls-1" d="m1023.66,1196.97c-0.22,-0.9 -0.65,-1.67 -1.3,-2.31c-0.21,-0.21 -0.55,-0.2 -0.76,0c0,0 0,0 -0.01,0.01l-1.11,1.22c-1.95,0.27 -3.86,1.63 -5.75,4.08c-2.71,3.52 -8,10.21 -12.55,14.82c-6.11,6.2 -10.3,10.38 -12.58,12.54c-11.25,10.68 -26.22,19.52 -41.47,21.48c-9.47,1.22 -18.82,0.82 -28.05,-1.21c-13.16,-2.89 -25.26,-16.19 -29.9,-27.3c-3.01,-7.21 -6.07,-17.07 -9.18,-29.6l-0.18,-2.08c-0.03,-0.27 -0.27,-0.48 -0.54,-0.45c0,0 0,0 -0.01,0c-0.73,0.09 -1.37,0.46 -1.91,1.12c0.14,-0.89 -0.15,-1.37 -0.86,-1.43c-0.45,-0.03 -0.74,0.16 -0.87,0.58c-2.43,7.61 -8.17,15.49 -13.16,21.02c-3.25,3.59 -9.42,10.7 -14.25,15.09c-13.09,11.87 -28.17,20.15 -45.24,24.84c-5.22,1.43 -11.19,1.94 -15.73,2.14c-7,0.3 -14,-0.42 -21,-2.16c-12.22,-3.05 -22.27,-10.1 -30.6,-19.61c-12.45,-14.21 -18.82,-30.66 -19.09,-49.35c-0.13,-8.89 -0.11,-14.59 0.06,-17.1c0.74,-10.83 2.49,-22.05 5.51,-33.78c7.73,-30.03 20.25,-57.95 37.57,-83.76c6.51,-9.7 14.58,-19.37 22.08,-26.75c1.29,-1.28 4.08,-3.67 8.35,-7.16c6.25,-5.1 12.9,-8.77 18.86,-12.92c3.89,-2.71 7.24,-4.78 10.05,-6.21c16.84,-8.55 34.5,-13.28 52.97,-14.2c7.4,-0.37 15,0.34 22.8,2.15c12.41,2.88 22.31,9.39 29.7,19.54c0.42,0.57 1.12,0.73 2.09,0.47c0.39,0.86 0.8,1.28 1.23,1.26c0.28,0.93 0.78,1.19 1.49,0.8c0.51,-0.29 0.96,-0.79 1.35,-1.51c2.58,-4.8 5.01,-9.73 10.04,-13.03c14.1,-9.23 29.51,-11.93 46.22,-8.11c12.58,2.87 17.51,10.32 14.81,23.36c-1.29,6.26 -2.91,12.63 -5.64,19.1c-7.81,18.53 -15.21,37.12 -22.21,55.78c-7.94,21.16 -14.56,41.99 -17.51,63.91c-1.68,12.54 -0.69,33.72 16.12,35.42c6.18,0.62 18.04,-4.17 22.9,-8.27c0.03,-0.03 2.46,-2.29 7.28,-6.8c0.77,-0.72 2.46,-2.14 5.08,-4.27c3.22,-2.61 5.92,-5.68 8.09,-9.21c0.22,-0.35 0.34,-0.76 0.34,-1.18c0.1,-10.87 0.85,-20.94 0.97,-31.28c0.05,-4.47 0.21,-7.52 0.48,-9.16c0.7,-4.22 1.48,-9.72 2.34,-16.5c0.65,-5.07 1.56,-10.54 2.74,-16.43c1.51,-7.51 2.6,-13 3.26,-16.48c1.01,-5.29 2.35,-10.72 4.02,-16.29c3.22,-10.73 6.28,-23 9.63,-32.93c9.29,-27.55 20.64,-54.18 35.14,-79.08c6.97,-11.96 11.22,-19.22 12.76,-21.79c6.37,-10.63 14.52,-21.81 24.45,-33.53c3.96,-4.68 6.78,-7.77 8.46,-9.28c2.89,-2.59 7.65,-6.66 14.3,-12.19c11.49,-9.58 24.46,-15.36 38.89,-17.35c16.29,-2.25 29.36,3.24 39.2,16.46c8.84,11.87 13.92,25.18 15.23,39.92c0.36,4 1.62,7.82 1.5,11.36c-0.28,8.17 -1.09,16.87 -2.43,26.08c-1.14,7.83 -3.26,16.28 -6.36,25.36c-4.99,14.61 -10.62,28.2 -16.88,40.79c-3.69,7.4 -9.49,17.86 -17.4,31.39c-3.34,5.7 -6.37,10.52 -9.09,14.47c-3.72,5.39 -6.75,10.22 -9.1,14.49c-1.36,2.47 -3.71,4.39 -5.29,6.74c-7.13,10.6 -12.4,17.93 -15.82,21.98c-5.62,6.67 -9.91,11.87 -12.88,15.6c-3.88,4.88 -8.04,9.58 -12.49,14.1c-3.49,3.54 -7.97,8.19 -13.46,13.96c-2.67,2.82 -6.83,6.25 -12.46,10.29c-8.43,6.04 -1.63,20.31 3.44,26.79c5.02,6.42 10.36,9.63 18.39,10.37c7.74,0.71 16,-1.49 23.45,-3.91c1.92,-0.63 3.38,-1.32 4.37,-2.09c6,-4.62 11.76,-8.25 17.28,-12.78c10.36,-8.51 18.98,-16.54 27.26,-26.42c7.08,-8.45 15.08,-16.27 21.5,-26.71c2.74,-4.45 5.67,-8.39 8.8,-11.83c0.3,-0.34 0.56,-0.71 0.78,-1.1c3.39,-6.2 5.53,-11.67 8.38,-16.61c4.72,-8.16 8.06,-16.31 10.03,-24.44c1.68,-6.93 1.18,-14.19 2.35,-20.87c1.11,-6.32 3.26,-12.88 6.45,-19.67c7.21,-15.41 17.95,-27.75 32.21,-37.02c13.28,-8.65 26.42,-15.01 42.17,-15.76c10.33,-0.49 17.98,-0.4 22.96,0.27c1.87,0.26 5.53,1.25 10.98,2.98c4.26,1.35 7.77,2.78 10.54,4.28c10.97,5.96 19.45,14.1 25.45,24.43c3.05,5.25 4.93,10.23 5.66,14.93c2.19,14.23 -0.38,29.9 -11.52,40.02c-6.74,6.11 -16.91,10.88 -26.43,10.94c-6.04,0.04 -12.21,1.71 -18.65,-1.57c-0.52,-0.27 -0.73,-0.9 -0.46,-1.43c0.02,-0.03 0.03,-0.06 0.05,-0.09c2.05,-3.18 3.2,-5.61 2.55,-9.66c-1.7,-10.47 -4.23,-21.27 -14.35,-24.88c-2.81,-1.01 -5.82,-0.83 -9.03,0.54c-7.86,3.33 -12.92,12.87 -11.51,21.15c1.22,7.13 4.15,14.13 8.78,21c5.03,7.45 11.29,14.86 18.8,22.24c7.16,7.04 14.36,14.08 21.6,21.11c2.91,2.82 6.44,7.29 8.59,10.02c18.48,23.54 21.88,59.66 8.35,86.48c-11.98,23.77 -33.03,41.14 -59.07,48.25c-20.25,5.52 -40.6,4.33 -61.07,-3.57c-4.57,-1.76 -7.86,-4.01 -12.77,-7.03c-9.33,-5.73 -15.94,-13.72 -19.81,-23.96c-1.47,-3.9 -2.38,-8.3 -2.72,-13.19c-0.27,-3.97 0.43,-7.96 2.11,-11.99c2.53,-6.04 5.07,-10.54 7.62,-13.49c9.27,-10.74 14.96,-17.33 17.05,-19.76c0.55,-0.64 1.52,-0.72 2.16,-0.17c0.1,0.09 0.2,0.19 0.27,0.31c0.87,1.29 1.53,2.53 2,3.74c5.69,14.74 13.51,26.52 30.23,28.16c3.59,0.35 7.23,-0.34 10.91,-2.07c5.16,-2.43 11.91,-5.98 13.85,-11.42c6.32,-17.63 -6.53,-33.51 -15.64,-47.39c-6.36,-9.69 -14.82,-17.95 -22.67,-26.34c-2.55,-2.72 -4.64,-5.6 -6.29,-8.63c-0.3,-0.54 -0.73,-0.93 -1.29,-1.16c-2.25,-0.93 -3.83,-0.32 -4.73,1.82c-4.34,10.31 -9.44,19.98 -15.29,29.02c-12.92,19.96 -20.7,31.59 -23.34,34.9c-1.59,1.99 -3.38,4.37 -5.38,7.14c-2.17,3.02 -3.97,5.4 -5.4,7.13c-2.21,2.68 -5.16,7.69 -8.2,11.11c-4.11,4.61 -9.12,10.31 -15.04,17.08c-4.66,5.33 -7.62,8.54 -8.89,9.62c-5.71,4.91 -12.97,12.2 -19.1,16.86c-11.12,8.45 -23.22,15.2 -36.3,20.26c-11.39,4.4 -22.98,4.28 -34.48,4.58c-0.13,0 -0.25,-0.01 -0.37,-0.03l-5.64,-1.13c-0.38,-0.08 -0.76,-0.13 -1.14,-0.14c-3.48,-0.15 -5.85,-0.46 -7.12,-0.93c-9.42,-3.52 -17.84,-7.57 -24.7,-14.56c-9.32,-9.49 -15.92,-21.08 -19.79,-34.75c-0.28,-0.99 -1.15,-1.66 -2.09,-1.61c-0.23,0.01 -0.34,0.33 -0.33,0.95l0,0.01zm73.28,-124.17c0,0.31 0.26,0.57 0.58,0.56c0.14,0 0.28,-0.06 0.38,-0.15c0.51,-0.49 1.24,-1.36 2.19,-2.62c25.13,-33.1 45.6,-68.78 61.42,-107.03c6.6,-15.97 12.03,-28.62 14.7,-42.05c0.93,-4.72 1.04,-10.86 -4.23,-12.76c-8.35,-3.02 -22.89,22.59 -26.12,28.62c-21.93,40.88 -37.23,83.23 -48.06,129.28c-0.58,2.47 -0.87,4.52 -0.86,6.15zm-285.82,101.18c9.31,7.89 25.62,2.92 34.65,-2.98c9.71,-6.34 17.75,-14.21 24.14,-23.6c10.93,-16.05 19.89,-32.75 26.88,-50.09c4.03,-9.97 6.74,-20.1 8.14,-30.38c0.51,-3.77 0.13,-6.58 -0.19,-11.71c-0.45,-7.31 -2.55,-13.19 -6.8,-18.42c-8.66,-10.67 -24.77,-5.32 -34.65,-0.04c-18.54,9.92 -31.97,27.23 -41.61,45.94c-10.21,19.81 -16.72,40.73 -19.51,62.77c-1.31,10.38 0.72,21.53 8.95,28.51z" id="svg_2"/>
   <path class="cls-1" d="m544.7,1110.74c24.73,-5 47.6,-14.31 67.19,-29.72c2.73,-2.15 5.03,-4.28 6.9,-6.4c2.7,-3.05 5.8,-5.66 8.62,-9.15c17.49,-21.65 27.88,-46.13 31.16,-73.44c1,-8.35 0.25,-17.89 -1.4,-26.29c-2.67,-13.48 -9.98,-23.83 -19.91,-33.44c-8.44,-8.18 -18.77,-14.03 -31,-17.54c-4.86,-1.4 -8.76,-2.33 -11.69,-2.8c-13.37,-2.11 -25.89,-2.43 -37.55,-0.97c-7.25,0.91 -11.08,1.38 -11.49,1.39c-4.09,0.12 -7.92,0.62 -11.49,1.49c-2.09,0.51 -6.87,1.53 -14.36,3.04c-0.48,0.1 -1.32,0.47 -2.53,1.11c-0.53,0.27 -1.07,0.5 -1.64,0.68c-21.98,6.9 -42.69,16.79 -62.14,29.66c-12.89,8.53 -24.15,18.43 -33.78,29.68c-5.14,6.01 -9.03,13.12 -11.68,21.32c-2.83,8.77 -2.78,17.76 0.13,26.98c1.76,5.55 5.66,11.67 8.72,16.68c0.26,0.42 0.13,0.97 -0.28,1.24c-8.55,5.59 -17.42,10.08 -26.61,13.46c-12.08,4.44 -25,4.97 -36.85,3.24c-13.91,-2.03 -25.3,-8.72 -34.19,-20.07c-2.76,-3.53 -4.83,-7.29 -6.21,-11.28c-3.47,-10.06 -4.84,-19.93 -4.1,-29.61c0.37,-4.83 1.67,-10.38 3.9,-16.63c5.19,-14.53 13.38,-27.75 24.56,-39.66c4.53,-4.83 9.54,-9.99 15.02,-15.48c4.89,-4.89 10.3,-9.61 16.23,-14.16c12.35,-9.45 18.9,-14.44 19.63,-14.96c1.49,-1.07 3.56,-2.16 6.2,-3.27c1.4,-0.59 3.12,-2.61 4.68,-3.66c15.67,-10.61 31.95,-19.23 48.82,-25.87c13.34,-5.26 27.84,-10.65 43.01,-14.45c13.37,-3.34 26.32,-5.84 38.85,-7.51c5.82,-0.77 15.44,-1.49 23.33,-2.33c3.55,-0.38 9.75,-0.52 18.59,-0.43c0.18,0 0.36,0 0.53,-0.04c0.77,-0.15 1.48,-0.22 2.13,-0.19c11.39,0.49 23.26,1.43 35.59,2.81c25.79,2.88 50.17,10.51 73.14,22.9c10.49,5.66 20.12,12.61 28.87,20.84c17.03,16.01 27.8,35.57 32.31,58.67c3.17,16.22 3.65,33.21 1.43,49.9c-1.06,7.94 -1.88,13.4 -2.47,16.39c-3.77,19.17 -10.4,35.27 -21.15,54.05c-2.83,4.95 -5.76,9.28 -8.78,13c-4.85,5.96 -7.63,10.87 -13.05,16.39c-7.15,7.28 -11.81,11.9 -13.98,13.86c-26.73,24.21 -57.45,40.5 -92.17,48.85c-18.75,4.52 -35.75,5.04 -55.65,3.9c-1.72,-0.09 -8.45,-3.18 -10.13,0.1c-0.15,0.3 -0.5,2.01 -1.05,5.12c-2.54,14.49 -5.08,28.35 -7.07,42.52c-0.91,6.45 -1.73,11.33 -2.47,14.64c-0.98,4.39 -0.86,10.26 -1.41,13.97c-2.16,14.51 -3.02,29.55 -2.57,45.11c0.25,8.63 2.5,18.01 2.86,26.36c0.25,6.06 -6.4,11.01 -10.38,14.13c-12.87,10.05 -26.74,17.89 -41.61,23.52c-8.61,3.25 -17.46,5.33 -26.24,5.92c-3.56,0.24 -7.54,-0.9 -11.93,-3.41c-9.83,-5.64 -15.12,-17.91 -14.75,-29.17c0.3,-8.98 0.46,-14.31 0.48,-15.99c0.07,-5.46 0.48,-10.77 1.21,-15.93c2.09,-14.62 3.83,-25.4 5.21,-32.33c3.41,-17.12 8.3,-38.2 14.67,-63.23c0.87,-3.44 1.43,-5.47 1.68,-6.09c1,-2.52 1.29,-5.21 2.09,-8.16c9.6,-35.12 20.15,-70.15 31.64,-105.08c9.23,-28.09 16.27,-48.58 26.65,-71.44c11.52,-25.38 32.66,-46.36 57.99,-58.23c4.31,-2.02 9.25,-3.09 14.8,-3.22c0.8,-0.02 1.58,-0.15 2.34,-0.4c4.68,-1.54 13.37,-3.23 15.33,2.54c0.36,1.05 -0.05,3.06 -1.23,6.04c-2.21,5.59 -3.83,9.98 -4.85,13.15c-7.93,24.61 -14.82,48.04 -20.67,70.27c-5.53,20.99 -8.51,32.36 -8.92,34.11c-3.76,15.87 -6.68,28.78 -8.76,38.74c-0.44,2.12 0.4,3.52 2.52,4.19c0.38,0.12 0.79,0.15 1.18,0.07z" id="svg_3"/>
  </g>
  <g id="svg_4" transform="translate(-239.68 -417.83)">
   <path class="cls-1" d="m476.79,599.76c6.24,-0.25 10.56,-0.37 12.96,-0.38c33.03,-0.02 66.07,-0.02 99.1,-0.01c4.28,0 9.52,-0.42 14.57,0.19c1.04,0.12 1.82,1 1.82,2.05l0,196.46c0,0.38 -0.3,0.68 -0.68,0.69l-51.37,0.32l0.05,-82.07c0,-0.18 -0.15,-0.31 -0.33,-0.31c-0.13,0 -0.24,0.09 -0.29,0.21l-1.54,4.59c-0.02,0.05 -0.04,0.11 -0.07,0.16c-3.17,5.77 -6.4,12.32 -9.69,19.65c-0.61,1.37 -2.66,2.89 -3.6,4.46c-1.23,2.05 -3,4.01 -5.29,5.9c-0.11,0.08 -0.22,0.14 -0.35,0.17l2.07,-1.69c-0.25,0.06 -2.73,2.85 -2.88,3.06l-3.16,3.32c-0.89,1.13 -2.65,2.01 -5.22,4.36c-4.29,5.35 -10.16,11 -17.61,16.95c-21.79,17.39 -46.59,27.66 -74.39,30.83c-7.21,0.82 -15.36,1.2 -24.45,1.14c-17.42,-0.47 -34.38,-3.58 -50.88,-9.33c-5.17,-2.14 -11.04,-4.19 -15.6,-6.54c-9.24,-4.76 -18.16,-10.19 -26.76,-16.28c-2.92,-2.06 -5.67,-4.72 -7.42,-6.05c-1.63,-1.24 -2.76,-2.21 -3.39,-2.91c-1.38,-1.55 -3.17,-2.32 -4.64,-3.78c-18.03,-17.95 -32.45,-38.77 -41.84,-62.04c-3.08,-7.66 -5.57,-13.08 -7.56,-19.9c-4.59,-15.78 -7.42,-32.06 -8.49,-48.85c-0.45,-7.09 0.1,-12.97 0.02,-19.49c-0.05,-4.45 0.2,-9.65 0.75,-15.61c2.83,-30.37 11.53,-60.34 27.68,-86.22c2.68,-4.3 5.46,-9.93 8.9,-13.6c2.05,-2.19 3.87,-5.06 6.51,-8.17c4.73,-5.59 10.14,-11.42 16.23,-17.51c5.03,-5.03 10,-9.4 14.93,-13.11c10.67,-8.05 20.84,-15.18 32.49,-20.78c37.93,-18.19 79.92,-24.95 121.21,-20.47c23.84,2.59 46.51,9.43 68.01,20.51c35.09,18.1 67.4,53.87 60.17,96.07c-2.44,14.27 -10.75,24.09 -24.93,29.45c-13.77,5.21 -27.95,7 -42.54,5.37c-0.57,-0.06 -0.98,-0.57 -0.93,-1.14c0.82,-8.97 -0.54,-18.07 -4.07,-27.3c-0.95,-2.47 -2.55,-6.79 -4.15,-9.76c-7.46,-13.85 -18.56,-23.99 -33.31,-30.44c-2.53,-1.11 -6.48,-2.47 -11.85,-4.1c-10.52,-3.19 -20.6,-4.99 -30.25,-5.4c-25.01,-1.07 -50.33,7.38 -69.83,22.78c-39.44,31.15 -47.9,80.43 -43.01,127.74c0.15,1.49 0.86,5.35 2.11,11.58c5.14,25.56 19.85,52.3 42.98,65.46c24.81,14.11 51.99,18.69 79.63,11.16c24.55,-6.69 44.54,-22.04 55.98,-44.3c2.73,-5.31 5.05,-10.4 6.94,-15.28c0.27,-0.71 0.12,-1.83 -0.46,-3.36c-0.12,-0.34 -0.41,-0.59 -0.76,-0.66c-1.29,-0.28 -2.94,-0.09 -3.95,-0.11c-25.87,-0.54 -52.54,-0.55 -80.01,-0.02c-0.66,0.01 -1.21,-0.51 -1.23,-1.17c0,-0.09 0,-0.19 0.03,-0.28l14.08,-64.88c0.19,-0.89 0.98,-1.52 1.89,-1.51l27.67,0.19l0,-0.01z" id="svg_5"/>
   <path class="cls-1" d="m1358.24,782.97c-10.04,-28.81 -19.02,-56.42 -26.94,-82.81c-3.65,-12.18 -7.72,-23.58 -12.19,-34.21l-2.4,-7.52c-0.1,-0.31 -0.35,-0.54 -0.67,-0.61c-0.73,-0.17 -1.17,0.15 -1.34,0.96c-0.49,-0.36 -0.97,-0.39 -1.45,-0.09c-0.31,0.19 -0.59,0.61 -0.85,1.26c-0.82,2.01 -2.05,5.19 -3.7,9.53c-8.64,22.73 -19.61,45.09 -32.9,67.09c-9.36,15.49 -21.1,28.14 -34.94,40.78c-8.33,7.6 -17.52,13.98 -27.57,19.15c-4.25,2.18 -7.92,3.45 -11.03,3.82c-9.1,1.08 -19.73,-2.15 -24.29,-11.02c-1.24,-2.42 -2.19,-4.45 -2.84,-6.08c-2.49,-6.2 -5.39,-14.57 -8.71,-25.1c-5.38,-17.11 -11.24,-34.99 -17.57,-53.65c-11.35,-33.47 -17.36,-51.3 -18.05,-53.48c-0.76,-2.39 -5.8,-17.95 -15.13,-46.66c-7.6,-23.4 -17.43,-50.93 -25.71,-74.83c-0.17,-0.49 0.1,-1.03 0.59,-1.19c0.09,-0.03 0.18,-0.05 0.27,-0.05l10.19,-0.34l40.2,0.08c8.3,0.38 19.07,-1.16 26.25,4.12c5.64,4.15 8.37,10.83 10.26,17.43c11.71,40.9 22.31,77.05 31.81,108.44c1.44,4.77 5.66,18.05 12.66,39.84c1.2,3.76 4.31,3.99 6.24,0.37c9.45,-17.67 17.53,-36.19 24.22,-55.56c12.52,-36.21 20.92,-73.79 25.19,-112.73c0.09,-0.77 0.73,-1.36 1.51,-1.37c14.39,-0.15 26.85,-0.31 37.38,-0.49c13.43,-0.23 25.62,2.62 33.34,14.63c3.97,6.17 6.56,12.26 8.78,19.78c1.56,5.27 9.81,32.6 24.75,81.99c8.6,28.43 15.33,49.37 20.19,62.81c0.58,1.61 1.68,1.99 3.3,1.16c0.24,-0.13 0.46,-0.29 0.65,-0.49c10.81,-11.68 19.54,-23.6 26.17,-35.75c14.72,-26.94 23.19,-56.25 25.41,-87.92c0.62,-8.84 -0.72,-17.74 -2.82,-30.28c-3.05,-18.15 -9.49,-35.34 -17.69,-52.23c-0.34,-0.7 -0.14,-1.54 0.47,-2.02c11.81,-9.27 25.21,-14.62 40.19,-16.07c2.63,-0.25 5.43,-0.1 8.42,0.45c24.39,4.54 35.43,21.8 41.25,44.27c3.57,13.8 5.39,27.77 5.44,41.92c0.08,23.7 -3.64,47.08 -11.16,70.14c-9.2,28.22 -23.15,55.79 -41.83,78.87c-17.35,21.44 -38.85,42.12 -64.51,62.03c-8.08,6.27 -15.94,11.26 -23.59,14.95c-4.37,2.11 -8.39,3.23 -12.06,3.34c-11.37,0.35 -18.4,-6.78 -23.19,-16.66z" id="svg_6"/>
   <path class="cls-1" d="m938.26,806.95c-42.15,-3.21 -81.78,-24.35 -105.01,-60.31c-27.58,-42.67 -31.15,-97.26 -11.75,-143.84c3.52,-8.47 7.82,-16.37 12.9,-23.7c21.47,-31.03 51.09,-49.55 88.88,-55.56c22.53,-3.59 44.08,-3.46 64.66,0.4c18.09,3.4 35.39,10.82 51.88,22.26c17.63,12.23 30.98,28.42 40.07,48.59c17.6,39.07 20.52,83.32 5.94,122.97c-8.35,22.71 -21.41,41.9 -39.16,57.59c-29.67,26.22 -69.23,34.59 -108.41,31.6zm-50.26,-123.55c4.88,30.92 26.04,60.25 59.51,62.3c26.47,1.62 47.11,-9.27 60.18,-32.45c5.63,-9.99 8.59,-23.26 10.3,-34.75c3.26,-21.87 -0.15,-42.54 -10.23,-62c-11.96,-23.1 -33.17,-38.05 -60.02,-35.23c-26.68,2.79 -43.04,18.1 -52.96,41.86c-7.89,18.87 -10.15,38.96 -6.78,60.27z" id="svg_7"/>
   <path class="cls-1" d="m717.63,641.93c-0.15,1.88 -0.23,3.74 -0.24,5.57c-0.27,57.37 -0.4,92.87 -0.4,106.5s0.12,28.37 0.36,43.1c0.01,0.73 -0.57,1.33 -1.3,1.34c0,0 0,0 -0.01,0l-68.5,0.4l-5.57,-0.03c-0.63,0 -1.14,-0.51 -1.14,-1.14c0,0 0,0 0,-0.01c0.1,-9.01 -0.08,-18.17 0.28,-27.28c0.11,-2.81 -0.42,-5.2 -0.08,-7.19l-0.03,-169.43l-0.02,-15.26c0.98,0 -0.03,1.97 0,0c0.2,-14.55 0.21,-30.92 0.02,-49.1c0,-0.51 0.37,-0.95 0.87,-1.02c0.85,-0.12 1.65,-0.18 2.38,-0.19c16.66,-0.09 35.99,-0.07 57.99,0.04c5.71,0.03 13.13,1.85 14.58,8.18c0.07,0.3 0.1,0.61 0.09,0.92c-0.37,11.36 -0.06,22.86 0.91,34.49c1.47,0.61 2.34,0.59 2.63,-0.06c0.91,0.2 1.63,-0.59 2.18,-2.36c3.98,-12.97 11.07,-23.89 21.28,-32.74c15.09,-13.1 35.53,-16.86 54.81,-12.71c3.03,0.65 8.97,2.89 9.76,6.34c0.3,1.31 0.12,3.2 -0.55,5.65c-5.43,20.18 -10.57,40.88 -15.44,62.1c-0.28,1.18 -1.45,1.92 -2.63,1.65c-0.09,-0.02 -0.17,-0.05 -0.26,-0.08c-12.45,-4.51 -25.04,-4.7 -37.75,-0.55c-18.42,6.01 -33.08,23.09 -34.22,42.87z" id="svg_8"/>
  </g>
 </g>
</svg>