<?xml version="1.0" encoding="UTF-8"?>
<svg id="Capa_1" data-name="Capa 1" xmlns="http://www.w3.org/2000/svg" viewBox="0 0 1773 1773">
  <defs>
    <style>
      .cls-1 {
        fill: #fff;
      }
    </style>
  </defs>
  <g>
    <path class="cls-1" d="M1023.66,1196.97c-.22-.9-.65-1.67-1.3-2.31-.21-.21-.55-.2-.76,0,0,0,0,0-.01.01l-1.11,1.22c-1.95.27-3.86,1.63-5.75,4.08-2.71,3.52-8,10.21-12.55,14.82-6.11,6.2-10.3,10.38-12.58,12.54-11.25,10.68-26.22,19.52-41.47,21.48-9.47,1.22-18.82.82-28.05-1.21-13.16-2.89-25.26-16.19-29.9-27.3-3.01-7.21-6.07-17.07-9.18-29.6l-.18-2.08c-.03-.27-.27-.48-.54-.45,0,0,0,0-.01,0-.73.09-1.37.46-1.91,1.12.14-.89-.15-1.37-.86-1.43-.45-.03-.74.16-.87.58-2.43,7.61-8.17,15.49-13.16,21.02-3.25,3.59-9.42,10.7-14.25,15.09-13.09,11.87-28.17,20.15-45.24,24.84-5.22,1.43-11.19,1.94-15.73,2.14-7,.3-14-.42-21-2.16-12.22-3.05-22.27-10.1-30.6-19.61-12.45-14.21-18.82-30.66-19.09-49.35-.13-8.89-.11-14.59.06-17.1.74-10.83,2.49-22.05,5.51-33.78,7.73-30.03,20.25-57.95,37.57-83.76,6.51-9.7,14.58-19.37,22.08-26.75,1.29-1.28,4.08-3.67,8.35-7.16,6.25-5.1,12.9-8.77,18.86-12.92,3.89-2.71,7.24-4.78,10.05-6.21,16.84-8.55,34.5-13.28,52.97-14.2,7.4-.37,15,.34,22.8,2.15,12.41,2.88,22.31,9.39,29.7,19.54.42.57,1.12.73,2.09.47.39.86.8,1.28,1.23,1.26.28.93.78,1.19,1.49.8.51-.29.96-.79,1.35-1.51,2.58-4.8,5.01-9.73,10.04-13.03,14.1-9.23,29.51-11.93,46.22-8.11,12.58,2.87,17.51,10.32,14.81,23.36-1.29,6.26-2.91,12.63-5.64,19.1-7.81,18.53-15.21,37.12-22.21,55.78-7.94,21.16-14.56,41.99-17.51,63.91-1.68,12.54-.69,33.72,16.12,35.42,6.18.62,18.04-4.17,22.9-8.27.03-.03,2.46-2.29,7.28-6.8.77-.72,2.46-2.14,5.08-4.27,3.22-2.61,5.92-5.68,8.09-9.21.22-.35.34-.76.34-1.18.1-10.87.85-20.94.97-31.28.05-4.47.21-7.52.48-9.16.7-4.22,1.48-9.72,2.34-16.5.65-5.07,1.56-10.54,2.74-16.43,1.51-7.51,2.6-13,3.26-16.48,1.01-5.29,2.35-10.72,4.02-16.29,3.22-10.73,6.28-23,9.63-32.93,9.29-27.55,20.64-54.18,35.14-79.08,6.97-11.96,11.22-19.22,12.76-21.79,6.37-10.63,14.52-21.81,24.45-33.53,3.96-4.68,6.78-7.77,8.46-9.28,2.89-2.59,7.65-6.66,14.3-12.19,11.49-9.58,24.46-15.36,38.89-17.35,16.29-2.25,29.36,3.24,39.2,16.46,8.84,11.87,13.92,25.18,15.23,39.92.36,4,1.62,7.82,1.5,11.36-.28,8.17-1.09,16.87-2.43,26.08-1.14,7.83-3.26,16.28-6.36,25.36-4.99,14.61-10.62,28.2-16.88,40.79-3.69,7.4-9.49,17.86-17.4,31.39-3.34,5.7-6.37,10.52-9.09,14.47-3.72,5.39-6.75,10.22-9.1,14.49-1.36,2.47-3.71,4.39-5.29,6.74-7.13,10.6-12.4,17.93-15.82,21.98-5.62,6.67-9.91,11.87-12.88,15.6-3.88,4.88-8.04,9.58-12.49,14.1-3.49,3.54-7.97,8.19-13.46,13.96-2.67,2.82-6.83,6.25-12.46,10.29-8.43,6.04-1.63,20.31,3.44,26.79,5.02,6.42,10.36,9.63,18.39,10.37,7.74.71,16-1.49,23.45-3.91,1.92-.63,3.38-1.32,4.37-2.09,6-4.62,11.76-8.25,17.28-12.78,10.36-8.51,18.98-16.54,27.26-26.42,7.08-8.45,15.08-16.27,21.5-26.71,2.74-4.45,5.67-8.39,8.8-11.83.3-.34.56-.71.78-1.1,3.39-6.2,5.53-11.67,8.38-16.61,4.72-8.16,8.06-16.31,10.03-24.44,1.68-6.93,1.18-14.19,2.35-20.87,1.11-6.32,3.26-12.88,6.45-19.67,7.21-15.41,17.95-27.75,32.21-37.02,13.28-8.65,26.42-15.01,42.17-15.76,10.33-.49,17.98-.4,22.96.27,1.87.26,5.53,1.25,10.98,2.98,4.26,1.35,7.77,2.78,10.54,4.28,10.97,5.96,19.45,14.1,25.45,24.43,3.05,5.25,4.93,10.23,5.66,14.93,2.19,14.23-.38,29.9-11.52,40.02-6.74,6.11-16.91,10.88-26.43,10.94-6.04.04-12.21,1.71-18.65-1.57-.52-.27-.73-.9-.46-1.43.02-.03.03-.06.05-.09,2.05-3.18,3.2-5.61,2.55-9.66-1.7-10.47-4.23-21.27-14.35-24.88-2.81-1.01-5.82-.83-9.03.54-7.86,3.33-12.92,12.87-11.51,21.15,1.22,7.13,4.15,14.13,8.78,21,5.03,7.45,11.29,14.86,18.8,22.24,7.16,7.04,14.36,14.08,21.6,21.11,2.91,2.82,6.44,7.29,8.59,10.02,18.48,23.54,21.88,59.66,8.35,86.48-11.98,23.77-33.03,41.14-59.07,48.25-20.25,5.52-40.6,4.33-61.07-3.57-4.57-1.76-7.86-4.01-12.77-7.03-9.33-5.73-15.94-13.72-19.81-23.96-1.47-3.9-2.38-8.3-2.72-13.19-.27-3.97.43-7.96,2.11-11.99,2.53-6.04,5.07-10.54,7.62-13.49,9.27-10.74,14.96-17.33,17.05-19.76.55-.64,1.52-.72,2.16-.17.1.09.2.19.27.31.87,1.29,1.53,2.53,2,3.74,5.69,14.74,13.51,26.52,30.23,28.16,3.59.35,7.23-.34,10.91-2.07,5.16-2.43,11.91-5.98,13.85-11.42,6.32-17.63-6.53-33.51-15.64-47.39-6.36-9.69-14.82-17.95-22.67-26.34-2.55-2.72-4.64-5.6-6.29-8.63-.3-.54-.73-.93-1.29-1.16-2.25-.93-3.83-.32-4.73,1.82-4.34,10.31-9.44,19.98-15.29,29.02-12.92,19.96-20.7,31.59-23.34,34.9-1.59,1.99-3.38,4.37-5.38,7.14-2.17,3.02-3.97,5.4-5.4,7.13-2.21,2.68-5.16,7.69-8.2,11.11-4.11,4.61-9.12,10.31-15.04,17.08-4.66,5.33-7.62,8.54-8.89,9.62-5.71,4.91-12.97,12.2-19.1,16.86-11.12,8.45-23.22,15.2-36.3,20.26-11.39,4.4-22.98,4.28-34.48,4.58-.13,0-.25-.01-.37-.03l-5.64-1.13c-.38-.08-.76-.13-1.14-.14-3.48-.15-5.85-.46-7.12-.93-9.42-3.52-17.84-7.57-24.7-14.56-9.32-9.49-15.92-21.08-19.79-34.75-.28-.99-1.15-1.66-2.09-1.61-.23.01-.34.33-.33.95ZM1096.94,1072.8c0,.31.26.57.58.56.14,0,.28-.06.38-.15.51-.49,1.24-1.36,2.19-2.62,25.13-33.1,45.6-68.78,61.42-107.03,6.6-15.97,12.03-28.62,14.7-42.05.93-4.72,1.04-10.86-4.23-12.76-8.35-3.02-22.89,22.59-26.12,28.62-21.93,40.88-37.23,83.23-48.06,129.28-.58,2.47-.87,4.52-.86,6.15ZM811.12,1173.98c9.31,7.89,25.62,2.92,34.65-2.98,9.71-6.34,17.75-14.21,24.14-23.6,10.93-16.05,19.89-32.75,26.88-50.09,4.03-9.97,6.74-20.1,8.14-30.38.51-3.77.13-6.58-.19-11.71-.45-7.31-2.55-13.19-6.8-18.42-8.66-10.67-24.77-5.32-34.65-.04-18.54,9.92-31.97,27.23-41.61,45.94-10.21,19.81-16.72,40.73-19.51,62.77-1.31,10.38.72,21.53,8.95,28.51Z"/>
    <path class="cls-1" d="M544.7,1110.74c24.73-5,47.6-14.31,67.19-29.72,2.73-2.15,5.03-4.28,6.9-6.4,2.7-3.05,5.8-5.66,8.62-9.15,17.49-21.65,27.88-46.13,31.16-73.44,1-8.35.25-17.89-1.4-26.29-2.67-13.48-9.98-23.83-19.91-33.44-8.44-8.18-18.77-14.03-31-17.54-4.86-1.4-8.76-2.33-11.69-2.8-13.37-2.11-25.89-2.43-37.55-.97-7.25.91-11.08,1.38-11.49,1.39-4.09.12-7.92.62-11.49,1.49-2.09.51-6.87,1.53-14.36,3.04-.48.1-1.32.47-2.53,1.11-.53.27-1.07.5-1.64.68-21.98,6.9-42.69,16.79-62.14,29.66-12.89,8.53-24.15,18.43-33.78,29.68-5.14,6.01-9.03,13.12-11.68,21.32-2.83,8.77-2.78,17.76.13,26.98,1.76,5.55,5.66,11.67,8.72,16.68.26.42.13.97-.28,1.24-8.55,5.59-17.42,10.08-26.61,13.46-12.08,4.44-25,4.97-36.85,3.24-13.91-2.03-25.3-8.72-34.19-20.07-2.76-3.53-4.83-7.29-6.21-11.28-3.47-10.06-4.84-19.93-4.1-29.61.37-4.83,1.67-10.38,3.9-16.63,5.19-14.53,13.38-27.75,24.56-39.66,4.53-4.83,9.54-9.99,15.02-15.48,4.89-4.89,10.3-9.61,16.23-14.16,12.35-9.45,18.9-14.44,19.63-14.96,1.49-1.07,3.56-2.16,6.2-3.27,1.4-.59,3.12-2.61,4.68-3.66,15.67-10.61,31.95-19.23,48.82-25.87,13.34-5.26,27.84-10.65,43.01-14.45,13.37-3.34,26.32-5.84,38.85-7.51,5.82-.77,15.44-1.49,23.33-2.33,3.55-.38,9.75-.52,18.59-.43.18,0,.36,0,.53-.04.77-.15,1.48-.22,2.13-.19,11.39.49,23.26,1.43,35.59,2.81,25.79,2.88,50.17,10.51,73.14,22.9,10.49,5.66,20.12,12.61,28.87,20.84,17.03,16.01,27.8,35.57,32.31,58.67,3.17,16.22,3.65,33.21,1.43,49.9-1.06,7.94-1.88,13.4-2.47,16.39-3.77,19.17-10.4,35.27-21.15,54.05-2.83,4.95-5.76,9.28-8.78,13-4.85,5.96-7.63,10.87-13.05,16.39-7.15,7.28-11.81,11.9-13.98,13.86-26.73,24.21-57.45,40.5-92.17,48.85-18.75,4.52-35.75,5.04-55.65,3.9-1.72-.09-8.45-3.18-10.13.1-.15.3-.5,2.01-1.05,5.12-2.54,14.49-5.08,28.35-7.07,42.52-.91,6.45-1.73,11.33-2.47,14.64-.98,4.39-.86,10.26-1.41,13.97-2.16,14.51-3.02,29.55-2.57,45.11.25,8.63,2.5,18.01,2.86,26.36.25,6.06-6.4,11.01-10.38,14.13-12.87,10.05-26.74,17.89-41.61,23.52-8.61,3.25-17.46,5.33-26.24,5.92-3.56.24-7.54-.9-11.93-3.41-9.83-5.64-15.12-17.91-14.75-29.17.3-8.98.46-14.31.48-15.99.07-5.46.48-10.77,1.21-15.93,2.09-14.62,3.83-25.4,5.21-32.33,3.41-17.12,8.3-38.2,14.67-63.23.87-3.44,1.43-5.47,1.68-6.09,1-2.52,1.29-5.21,2.09-8.16,9.6-35.12,20.15-70.15,31.64-105.08,9.23-28.09,16.27-48.58,26.65-71.44,11.52-25.38,32.66-46.36,57.99-58.23,4.31-2.02,9.25-3.09,14.8-3.22.8-.02,1.58-.15,2.34-.4,4.68-1.54,13.37-3.23,15.33,2.54.36,1.05-.05,3.06-1.23,6.04-2.21,5.59-3.83,9.98-4.85,13.15-7.93,24.61-14.82,48.04-20.67,70.27-5.53,20.99-8.51,32.36-8.92,34.11-3.76,15.87-6.68,28.78-8.76,38.74-.44,2.12.4,3.52,2.52,4.19.38.12.79.15,1.18.07Z"/>
  </g>
  <g>
    <path class="cls-1" d="M476.79,599.76c6.24-.25,10.56-.37,12.96-.38,33.03-.02,66.07-.02,99.1-.01,4.28,0,9.52-.42,14.57.19,1.04.12,1.82,1,1.82,2.05v196.46c0,.38-.3.68-.68.69l-51.37.32.05-82.07c0-.18-.15-.31-.33-.31-.13,0-.24.09-.29.21l-1.54,4.59c-.02.05-.04.11-.07.16-3.17,5.77-6.4,12.32-9.69,19.65-.61,1.37-2.66,2.89-3.6,4.46-1.23,2.05-3,4.01-5.29,5.9-.11.08-.22.14-.35.17l2.07-1.69c-.25.06-2.73,2.85-2.88,3.06l-3.16,3.32c-.89,1.13-2.65,2.01-5.22,4.36-4.29,5.35-10.16,11-17.61,16.95-21.79,17.39-46.59,27.66-74.39,30.83-7.21.82-15.36,1.2-24.45,1.14-17.42-.47-34.38-3.58-50.88-9.33-5.17-2.14-11.04-4.19-15.6-6.54-9.24-4.76-18.16-10.19-26.76-16.28-2.92-2.06-5.67-4.72-7.42-6.05-1.63-1.24-2.76-2.21-3.39-2.91-1.38-1.55-3.17-2.32-4.64-3.78-18.03-17.95-32.45-38.77-41.84-62.04-3.08-7.66-5.57-13.08-7.56-19.9-4.59-15.78-7.42-32.06-8.49-48.85-.45-7.09.1-12.97.02-19.49-.05-4.45.2-9.65.75-15.61,2.83-30.37,11.53-60.34,27.68-86.22,2.68-4.3,5.46-9.93,8.9-13.6,2.05-2.19,3.87-5.06,6.51-8.17,4.73-5.59,10.14-11.42,16.23-17.51,5.03-5.03,10-9.4,14.93-13.11,10.67-8.05,20.84-15.18,32.49-20.78,37.93-18.19,79.92-24.95,121.21-20.47,23.84,2.59,46.51,9.43,68.01,20.51,35.09,18.1,67.4,53.87,60.17,96.07-2.44,14.27-10.75,24.09-24.93,29.45-13.77,5.21-27.95,7-42.54,5.37-.57-.06-.98-.57-.93-1.14.82-8.97-.54-18.07-4.07-27.3-.95-2.47-2.55-6.79-4.15-9.76-7.46-13.85-18.56-23.99-33.31-30.44-2.53-1.11-6.48-2.47-11.85-4.1-10.52-3.19-20.6-4.99-30.25-5.4-25.01-1.07-50.33,7.38-69.83,22.78-39.44,31.15-47.9,80.43-43.01,127.74.15,1.49.86,5.35,2.11,11.58,5.14,25.56,19.85,52.3,42.98,65.46,24.81,14.11,51.99,18.69,79.63,11.16,24.55-6.69,44.54-22.04,55.98-44.3,2.73-5.31,5.05-10.4,6.94-15.28.27-.71.12-1.83-.46-3.36-.12-.34-.41-.59-.76-.66-1.29-.28-2.94-.09-3.95-.11-25.87-.54-52.54-.55-80.01-.02-.66.01-1.21-.51-1.23-1.17,0-.09,0-.19.03-.28l14.08-64.88c.19-.89.98-1.52,1.89-1.51l27.67.19Z"/>
    <path class="cls-1" d="M1358.24,782.97c-10.04-28.81-19.02-56.42-26.94-82.81-3.65-12.18-7.72-23.58-12.19-34.21l-2.4-7.52c-.1-.31-.35-.54-.67-.61-.73-.17-1.17.15-1.34.96-.49-.36-.97-.39-1.45-.09-.31.19-.59.61-.85,1.26-.82,2.01-2.05,5.19-3.7,9.53-8.64,22.73-19.61,45.09-32.9,67.09-9.36,15.49-21.1,28.14-34.94,40.78-8.33,7.6-17.52,13.98-27.57,19.15-4.25,2.18-7.92,3.45-11.03,3.82-9.1,1.08-19.73-2.15-24.29-11.02-1.24-2.42-2.19-4.45-2.84-6.08-2.49-6.2-5.39-14.57-8.71-25.1-5.38-17.11-11.24-34.99-17.57-53.65-11.35-33.47-17.36-51.3-18.05-53.48-.76-2.39-5.8-17.95-15.13-46.66-7.6-23.4-17.43-50.93-25.71-74.83-.17-.49.1-1.03.59-1.19.09-.03.18-.05.27-.05l10.19-.34,40.2.08c8.3.38,19.07-1.16,26.25,4.12,5.64,4.15,8.37,10.83,10.26,17.43,11.71,40.9,22.31,77.05,31.81,108.44,1.44,4.77,5.66,18.05,12.66,39.84,1.2,3.76,4.31,3.99,6.24.37,9.45-17.67,17.53-36.19,24.22-55.56,12.52-36.21,20.92-73.79,25.19-112.73.09-.77.73-1.36,1.51-1.37,14.39-.15,26.85-.31,37.38-.49,13.43-.23,25.62,2.62,33.34,14.63,3.97,6.17,6.56,12.26,8.78,19.78,1.56,5.27,9.81,32.6,24.75,81.99,8.6,28.43,15.33,49.37,20.19,62.81.58,1.61,1.68,1.99,3.3,1.16.24-.13.46-.29.65-.49,10.81-11.68,19.54-23.6,26.17-35.75,14.72-26.94,23.19-56.25,25.41-87.92.62-8.84-.72-17.74-2.82-30.28-3.05-18.15-9.49-35.34-17.69-52.23-.34-.7-.14-1.54.47-2.02,11.81-9.27,25.21-14.62,40.19-16.07,2.63-.25,5.43-.1,8.42.45,24.39,4.54,35.43,21.8,41.25,44.27,3.57,13.8,5.39,27.77,5.44,41.92.08,23.7-3.64,47.08-11.16,70.14-9.2,28.22-23.15,55.79-41.83,78.87-17.35,21.44-38.85,42.12-64.51,62.03-8.08,6.27-15.94,11.26-23.59,14.95-4.37,2.11-8.39,3.23-12.06,3.34-11.37.35-18.4-6.78-23.19-16.66Z"/>
    <path class="cls-1" d="M938.26,806.95c-42.15-3.21-81.78-24.35-105.01-60.31-27.58-42.67-31.15-97.26-11.75-143.84,3.52-8.47,7.82-16.37,12.9-23.7,21.47-31.03,51.09-49.55,88.88-55.56,22.53-3.59,44.08-3.46,64.66.4,18.09,3.4,35.39,10.82,51.88,22.26,17.63,12.23,30.98,28.42,40.07,48.59,17.6,39.07,20.52,83.32,5.94,122.97-8.35,22.71-21.41,41.9-39.16,57.59-29.67,26.22-69.23,34.59-108.41,31.6ZM888,683.4c4.88,30.92,26.04,60.25,59.51,62.3,26.47,1.62,47.11-9.27,60.18-32.45,5.63-9.99,8.59-23.26,10.3-34.75,3.26-21.87-.15-42.54-10.23-62-11.96-23.1-33.17-38.05-60.02-35.23-26.68,2.79-43.04,18.1-52.96,41.86-7.89,18.87-10.15,38.96-6.78,60.27Z"/>
    <path class="cls-1" d="M717.63,641.93c-.15,1.88-.23,3.74-.24,5.57-.27,57.37-.4,92.87-.4,106.5s.12,28.37.36,43.1c.01.73-.57,1.33-1.3,1.34,0,0,0,0-.01,0l-68.5.4-5.57-.03c-.63,0-1.14-.51-1.14-1.14,0,0,0,0,0-.01.1-9.01-.08-18.17.28-27.28.11-2.81-.42-5.2-.08-7.19l-.03-169.43-.02-15.26c.98,0-.03,1.97,0,0,.2-14.55.21-30.92.02-49.1,0-.51.37-.95.87-1.02.85-.12,1.65-.18,2.38-.19,16.66-.09,35.99-.07,57.99.04,5.71.03,13.13,1.85,14.58,8.18.07.3.1.61.09.92-.37,11.36-.06,22.86.91,34.49,1.47.61,2.34.59,2.63-.06.91.2,1.63-.59,2.18-2.36,3.98-12.97,11.07-23.89,21.28-32.74,15.09-13.1,35.53-16.86,54.81-12.71,3.03.65,8.97,2.89,9.76,6.34.3,1.31.12,3.2-.55,5.65-5.43,20.18-10.57,40.88-15.44,62.1-.28,1.18-1.45,1.92-2.63,1.65-.09-.02-.17-.05-.26-.08-12.45-4.51-25.04-4.7-37.75-.55-18.42,6.01-33.08,23.09-34.22,42.87Z"/>
  </g>
</svg>